HIERARCHY
ROOT HipCenter
{
    OFFSET 0.0 0.0 -0.0
    CHANNELS 6 Xposition Yposition Zposition Zrotation Xrotation Yrotation
    JOINT Spine
    {
        OFFSET 0.0 26.69333839416504 0.0
        CHANNELS 3 Zrotation Xrotation Yrotation
        JOINT ShoulderCenter
        {
            OFFSET 0.0 19.995403289794922 0.0
            CHANNELS 3 Zrotation Xrotation Yrotation
            JOINT LeftShoulder
            {
                OFFSET 13.676183700561523 0.0 0.0
                CHANNELS 3 Zrotation Xrotation Yrotation
                JOINT LeftElbow
                {
                    OFFSET 21.310272216796875 0.0 0.0
                    CHANNELS 3 Zrotation Xrotation Yrotation
                    JOINT LeftWrist
                    {
                        OFFSET 21.296852111816406 0.0 0.0
                        CHANNELS 3 Zrotation Xrotation Yrotation
                        JOINT LeftHand
                        {
                            OFFSET 6.351758003234863 0.0 0.0
                            CHANNELS 3 Zrotation Xrotation Yrotation
                            End Site
                            {
                                OFFSET 2.540703296661377 0.0 0.0
                            }
                        }
                    }
                }
            }
            JOINT RightShoulder
            {
                OFFSET -13.676183700561523 0.0 0.0
                CHANNELS 3 Zrotation Xrotation Yrotation
                JOINT RightElbow
                {
                    OFFSET -21.310272216796875 0.0 0.0
                    CHANNELS 3 Zrotation Xrotation Yrotation
                    JOINT RightWrist
                    {
                        OFFSET -21.296852111816406 0.0 0.0
                        CHANNELS 3 Zrotation Xrotation Yrotation
                        JOINT RightHand
                        {
                            OFFSET -6.351758003234863 0.0 0.0
                            CHANNELS 3 Zrotation Xrotation Yrotation
                            End Site
                            {
                                OFFSET -2.540703296661377 0.0 0.0
                            }
                        }
                    }
                }
            }
            End Site
            {
                OFFSET 0.0 7.998161315917969 0.0
            }
        }
    }
    JOINT LeftHip
    {
        OFFSET 6.467995643615723 0.0 0.0
        CHANNELS 3 Zrotation Xrotation Yrotation
        JOINT LeftKnee
        {
            OFFSET 0.0 -29.37379264831543 0.0
            CHANNELS 3 Zrotation Xrotation Yrotation
            JOINT LeftAnkle
            {
                OFFSET 0.0 -33.33027648925781 0.0
                CHANNELS 3 Zrotation Xrotation Yrotation
                JOINT LeftFoot
                {
                    OFFSET 0.0 -9.480118751525879 0.0
                    CHANNELS 3 Zrotation Xrotation Yrotation
                    End Site
                    {
                        OFFSET 0.0 0.0 3.7920479774475098
                    }
                }
            }
        }
    }
    JOINT RightHip
    {
        OFFSET -6.467995643615723 0.0 0.0
        CHANNELS 3 Zrotation Xrotation Yrotation
        JOINT RightKnee
        {
            OFFSET 0.0 -29.37379264831543 0.0
            CHANNELS 3 Zrotation Xrotation Yrotation
            JOINT RightAnkle
            {
                OFFSET 0.0 -33.33027648925781 0.0
                CHANNELS 3 Zrotation Xrotation Yrotation
                JOINT RightFoot
                {
                    OFFSET 0.0 -9.480118751525879 0.0
                    CHANNELS 3 Zrotation Xrotation Yrotation
                    End Site
                    {
                        OFFSET 0.0 0.0 3.7920479774475098
                    }
                }
            }
        }
    }
}
MOTION
Frames: 10
Frame Time: 0.03333333333333333
37.25436019897461 16.846040725708008 -379.2644958496094 -3.4411516634307184 17.28667269735233 158.06441213363925 0.648673060497748 -1.883648093423815 0.18645246910986496 5.690712774965125e-07 -1.6076238278309897e-06 -4.423377689569476 -88.3645599306604 -23.992347989546435 0.010783769013880272 -1.4293531311762768e-06 1.1800519149582371e-06 22.48648291561672 -1.2431605171054578e-05 -89.18278956553426 19.03991177918706 0.0 0.0 3.180554681463516e-15 73.68687464183421 -26.593513461359606 -4.56697608440929 -1.7669310933978163e-07 4.09052435277478e-07 -17.481302072601228 -179.99998462541234 -73.96473652060652 168.37437607406153 -6.3611093629270335e-15 0.0 0.0 -8.158743340015517 -8.255470207375557 29.71035812923216 -0.05558694188709838 -4.4738049422643815 -1.1148816064606604 87.54904461799602 61.96710350362041 -71.5421064561587 -9.93923337957349e-16 6.3611093629270335e-15 -1.5902773407317584e-15 -16.665320339256173 -0.67538103974881 -23.535746048377167 14.40765372142903 -5.972484041574548 0.9931473107521658 21.22828245682495 35.6315100540269 -19.035284420482594 -1.9878466759146976e-15 1.590277340731758e-15 1.590277340731758e-15
37.26123809814453 16.857620239257812 -379.2781066894531 -3.4452911729806894 17.305203553526557 158.4457947951485 0.6296020093898506 -1.8729868526915374 0.18866156285969457 8.450165833818086e-07 -9.303363885804362e-07 -4.866321220983239 -88.17611081001043 -25.270465743104584 -0.23585047281887656 1.63230644166333e-06 -8.39030500186548e-09 23.309607683222968 179.99999944964222 -71.86843430304948 -163.8201166069578 -6.361109362927033e-15 -3.1805546814635168e-15 3.180554681463516e-15 73.6288325059247 -26.03649600695956 -4.371822182700577 -2.1739967874543533e-06 -5.743600954810852e-06 -18.312552813378524 179.99999181973538 -69.45451264666575 165.9065222901153 6.361109362927032e-15 -3.2054027649124497e-15 1.7793559764014702e-31 -8.229507503912718 -8.12117238591691 29.568737297286457 -0.08174735280995019 -4.620834740174843 -1.1491925288834575 87.70991066413919 61.66181242466239 -71.70379028888247 -3.578124016646456e-15 0.0 0.0 -17.021540797345533 -0.23784594529320122 -23.557188398570613 14.832854754014106 -6.25350391327604 1.0542255330187054 24.983259553857597 34.03620286311412 -21.05125953276997 -2.186631343506168e-15 3.4138806523981697e-32 -1.7890620083232284e-15
37.41792297363281 16.8570499420166 -379.14410400390625 -3.2425697195336767 17.220528248521305 158.4656152991997 0.6744807786515106 -1.8394689081071312 0.18229870402645698 4.775514176008756e-07 -7.565411007708279e-07 -4.852809859908174 -87.66649322238611 -27.848146123706794 -1.7552983124638062 4.123904076188435e-06 3.6447151951351617e-06 26.9652517719715 1.3843739196917175e-05 -81.17674881813232 13.226880178936142 0.0 -3.1805546814635168e-15 0.0 73.22038072195203 -25.680697272742446 -3.914586351788179 -7.5176743798769e-07 -1.9995137176700896e-07 -19.357018019915344 -179.99995522143902 -86.37913295851985 163.65797048004535 6.361109362927033e-15 -7.951386703658789e-16 3.1805546814635164e-15 -7.643527422817383 -8.266783226485899 29.511109899835997 -0.4174627702663032 -4.275196956344487 -1.0608948304755643 87.73844278949566 61.6826482460662 -71.76679412787684 -1.987846675914698e-16 -2.758691436281349e-33 1.5902773407317584e-15 -16.326331101070114 -0.3740586713480691 -23.548225462088904 17.174969739911532 -5.647293283640162 1.2461973487646185 -87.99561102892457 67.64058025191424 74.47473759975307 0.0 0.0 -3.975693351829396e-15
37.83599090576172 16.818580627441406 -378.8559875488281 -2.7951904780004257 16.98695005587245 159.85681330200882 0.7090552740966971 -1.8380423754623956 0.18283647952077003 8.515854049538138e-08 9.042696224355275e-07 -7.110812974261815 -85.28708465893621 -36.63781123412507 -2.6260138863737286 -1.020435146024252e-06 -8.546226161902326e-07 33.31342272148228 4.328498709566486e-06 -20.615035637134035 20.695051482172698 1.9878466759146975e-16 -1.3793457181406746e-33 -7.95138670365879e-16 72.31686754162237 -30.814261638022955 -2.0012794914930288 1.7207483727829858e-06 -1.163779033500857e-06 -24.234519243964357 -2.1522194212376808e-06 -64.87615385986773 -14.272229255409053 -6.361109362927037e-15 1.7655625192200634e-31 -3.1805546814635183e-15 -6.179485841533202 -8.625490542504755 30.394136696500713 -1.4066197793071935 -3.2594990215451514 -0.8060437776330124 88.07274191176167 58.6356485862829 -71.6621909882593 1.987846675914698e-16 0.0 0.0 -15.187176225828312 0.0631100266716564 -24.450340947818788 15.027159352815522 -6.211219249130674 1.2332900198421846 17.219371443559496 35.49191112801641 -17.432436661439613 3.578124016646457e-15 1.5902773407317584e-15 9.93923337957349e-16
37.86042785644531 16.834260940551758 -378.853515625 -2.7962999630619714 17.022783648978454 160.12834489102164 0.6713426443128516 -1.8366983110540833 0.18304710373283017 6.391387526156501e-07 -4.228815685896041e-07 -8.058106950917661 -81.53401359001492 -38.512313167564564 -10.156886916238964 -3.358927608368917e-06 2.3791484247085296e-06 58.65281204261301 -179.9998636041025 -89.0422426844802 -154.8538011099658 0.0 0.0 3.1805546814635176e-15 71.55458545936538 -32.929746458659835 6.584904972519338 1.3501442359895721e-06 2.419700885970996e-06 -40.5602458687414 4.237375713039711e-06 -65.23297104614215 -17.468183377638905 4.4139062980501586e-32 1.5902773407317584e-15 -3.1805546814635168e-15 -6.303301139425083 -8.679761203066812 30.277074664896777 -1.2532412563550477 -3.139297310764307 -0.7747030572412342 87.99202639611399 57.90686303602501 -71.4652057951898 1.987846675914698e-16 2.758691436281349e-33 1.5902773407317584e-15 -15.311919026345606 0.17281061719896218 -24.452195245636258 14.882740880953492 -6.368638806510817 1.2407489359491404 19.308415303698123 34.9541736077216 -18.501381742578452 -5.764755360152626e-15 -1.5902773407317588e-15 1.5902773407317588e-15
37.90285110473633 16.845829010009766 -378.851806640625 -2.724385588819595 17.05000626427445 160.53679224563325 0.6777406946290759 -1.8307176954849544 0.18093667577776895 4.6936581176304775e-07 -7.469461138499111e-07 -8.535007436371574 -78.49452694905777 -39.72410996915235 -8.354692452611015 5.17537183689685e-06 5.303530367590321e-06 67.60027058262898 5.181803527837225e-06 -60.09661006919647 58.86615326005147 2.9817700138720468e-15 -6.361109362927033e-15 1.6552148617688094e-31 70.45861482774195 -42.76033547157198 10.962916689380378 4.3219603369431807e-07 1.831779095091695e-06 -53.38326811281124 2.4223332073743068e-05 -88.1820259644311 -24.37356577201064 0.0 0.0 1.5902773407317584e-15 -6.289925555523528 -8.572896043624525 30.044538245600346 -1.5307637909687064 -2.925870715607689 -0.7356382930034328 87.9086763894885 57.595798783138164 -71.02011270652974 -1.3914926731402886e-15 0.0 0.0 -15.847563330275966 0.7882982090104615 -24.36285291266116 15.406520549026864 -6.918211348325928 1.3189513173614953 29.10692425784988 35.58889689370112 -25.906415633314847 -9.14409470920761e-15 7.931237879308879e-32 -9.93923337957349e-16
38.07992172241211 16.91191864013672 -378.70220947265625 -2.453643861667592 16.974674208771717 160.6110554309068 0.7684458322781481 -1.8135627001987082 0.1852116828186951 -2.4325188530530796e-08 3.0480730052965017e-07 -9.105468519374842 -75.20478168743568 -49.066998639900966 -5.25639559595987 7.404033083214227e-06 7.553833247817884e-07 83.75793952390559 179.9999925584476 -69.48912452605906 -118.85566825531023 -6.361109362927035e-15 8.827812596100317e-32 -1.5902773407317588e-15 68.53740623374355 -40.04255500010767 13.58043796689714 -1.0607976084672582e-06 -3.3840131691480164e-07 -64.62380374057098 -179.99996791832893 -85.95642849363763 155.6253348644134 -6.361109362927033e-15 -7.951386703658791e-16 -4.4139062980501586e-32 -5.855532924416465 -8.316844390014479 30.26912299207748 -1.7106170866489696 -3.1713607545931937 -0.7719844564322946 88.06142371716182 56.91397927589356 -71.56317615523412 -3.180554681463516e-15 -4.4139062980501586e-32 1.590277340731758e-15 -15.363084300780462 0.7233967270984716 -24.53485250157487 14.837036166302779 -6.663817181449514 1.2675366696740267 28.70416493683191 34.302640972025955 -24.86004278452843 -3.578124016646457e-15 -1.1172700316939464e-31 3.578124016646457e-15
38.52562713623047 16.996721267700195 -378.6995849609375 -1.7829314396345524 17.05139780260341 160.15037512525177 1.0141259988344316 -1.6376808220430357 0.16570401985816005 -6.416226031147884e-07 2.2528099107564733e-06 -9.39064102313081 -73.104567394776 -50.543980525726624 -2.901968555367142 1.6326051796621346e-06 -3.272415838954559e-06 82.90738407430129 -179.99997947188137 -69.47996462413218 -109.35214108821327 0.0 -3.975693351829396e-16 0.0 67.86542258775526 -42.704836330708545 13.979648193303413 1.1371090401760758e-06 1.4274697240729674e-06 -76.06472394930096 -179.99999570794202 -53.85831911632885 111.61106570027594 -2.2069531490250793e-32 -3.1805546814635164e-15 -7.951386703658791e-16 -4.201940642370922 -7.676780246470016 31.311056662649225 -2.72127213929577 -2.9320523248704196 -0.7057672267577184 87.89264264230582 55.84598372149248 -71.32107019265624 7.951386703658792e-16 0.0 0.0 -14.24989290233413 1.217297011348458 -24.915151043177488 14.61483251569645 -6.9618993368000615 1.3810901416070904 26.94039883617827 34.76087777934472 -24.09202683536549 1.9878466759146977e-16 -3.793200724886855e-33 -2.1866313435061676e-15
38.6918830871582 17.096309661865234 -378.6911926269531 -1.5922017927449463 17.25547487188073 160.6410377662952 0.9697481010655463 -1.6932690564886779 0.18298353564251923 7.264119618591547e-09 3.152086819791517e-07 -9.099918936523949 -64.64673202103377 -52.06638992924206 1.7281810695460158 1.1248030074643688e-07 1.2865773974289463e-07 96.83400464283598 179.9999929686112 -69.4411864967614 -110.37435925434065 0.0 0.0 0.0 64.64192572165743 -46.313450966577435 14.5387400814711 4.9742785156123e-06 -3.891518602615713e-06 -80.93818012274463 179.99999037544566 -67.4014961349129 91.64438081019269 -8.827812596100317e-32 6.3611093629270335e-15 1.5902773407317584e-15 -3.881494124892821 -7.367569931091565 30.862357374276712 -3.053092648189305 -2.7683407559326203 -0.6418100282391966 87.74216837881664 56.379111691035924 -71.81273708531342 3.975693351829396e-16 5.517382872562698e-33 1.5902773407317584e-15 -13.503165248080576 1.7271777614192614 -24.712690290253132 13.875716528188073 -7.474371515144101 1.5084539965525456 27.245597762178566 33.86308405991498 -23.97353045684805 -6.3611093629270335e-15 3.9756933518293925e-16 5.9635400277440935e-15
38.790679931640625 17.19972038269043 -378.6108093261719 -1.7097375035433244 17.60005443224704 159.5382003943386 0.9353279258762147 -1.8372822780578504 0.2053363802551073 -3.893002950053835e-07 -1.8636993959952799e-06 -8.218040902603315 -65.48726690838092 -52.06863843650498 1.3575433072833931 -8.260916171318388e-06 2.7811892975176165e-06 96.42785244966873 179.99999842738708 -70.16254332249407 -114.21058396285946 8.276074308844047e-33 -3.975693351829396e-16 2.3854160110976376e-15 59.486041423942936 -51.711218373557045 11.115815973270415 -1.8139717642374557e-07 1.9972796986952482e-07 -89.30046355049707 -179.99999629494067 -53.74453403685098 102.15476332279971 0.0 0.0 -1.789062008323228e-15 -3.6939527152398117 -6.802429408705745 30.969278782159744 -3.4987994183475934 -3.083234885136425 -0.7180650754500323 87.73840134308632 57.33382072503091 -71.92907046269283 1.1927080055488186e-15 -1.6552148617688095e-32 -1.5902773407317582e-15 -13.270074495092029 1.4625559689603647 -24.210922596839612 13.350827863558345 -7.314217555219037 1.4886487205987748 22.613429802839036 30.10115068432605 -18.726239676066395 -1.093315671753084e-15 -1.987846675914699e-16 5.764755360152626e-15
